<?xml version="1.0" encoding="UTF-8"?>
<!DOCTYPE svg PUBLIC "-//W3C//DTD SVG 1.1//EN" "http://www.w3.org/Graphics/SVG/1.1/DTD/svg11.dtd">
<svg xmlns="http://www.w3.org/2000/svg" version="1.1" width="748px" height="334px" style="shape-rendering:geometricPrecision; text-rendering:geometricPrecision; image-rendering:optimizeQuality; fill-rule:evenodd; clip-rule:evenodd" xmlns:xlink="http://www.w3.org/1999/xlink">
<g><path style="opacity:1" fill="#5a304a" d="M 379.5,10.5 C 381.989,10.2978 384.323,10.7978 386.5,12C 389.369,15.2041 392.535,18.0374 396,20.5C 396.414,20.0426 396.914,19.7093 397.5,19.5C 402.275,22.2056 406.941,21.8722 411.5,18.5C 412.72,18.8869 413.387,19.7202 413.5,21C 407.145,36.4064 396.812,39.7397 382.5,31C 379.669,25.0888 377.336,25.4221 375.5,32C 375.862,33.2247 376.362,34.3914 377,35.5C 387.376,41.7425 398.376,43.0758 410,39.5C 412.319,40.4085 412.986,42.0752 412,44.5C 410.576,48.7925 408.409,52.6259 405.5,56C 395.515,56.8881 385.515,57.5547 375.5,58C 370.425,59.0353 365.425,60.0353 360.5,61C 359.446,59.6124 359.28,58.1124 360,56.5C 363.366,52.9458 366.533,49.9458 369.5,47.5C 368.239,44.7363 366.405,42.403 364,40.5C 362.85,38.2462 362.516,35.9129 363,33.5C 368.019,25.4513 373.519,17.7847 379.5,10.5 Z"/></g>
<g><path style="opacity:1" fill="#000000" d="M 361.5,62.5 C 362.833,63.1667 362.833,63.1667 361.5,62.5 Z"/></g>
<g><path style="opacity:1" fill="#653c54" d="M 477.5,79.5 C 478.833,81.5 480.5,83.1667 482.5,84.5C 483.833,85.1667 484.833,86.1667 485.5,87.5C 484.883,87.6107 484.383,87.944 484,88.5C 481.639,85.5576 478.806,84.891 475.5,86.5C 475.483,90.7914 476.483,94.7914 478.5,98.5C 471.767,86.9393 462.1,78.7727 449.5,74C 433.534,69.533 417.534,69.3663 401.5,73.5C 401.261,71.5328 401.594,69.6995 402.5,68C 426.882,59.6306 450.216,61.964 472.5,75C 474.618,76.0491 476.284,77.5491 477.5,79.5 Z"/></g>
<g><path style="opacity:1" fill="#6f4d62" d="M 357.5,66.5 C 342.084,66.1548 327.084,68.4881 312.5,73.5C 308.698,76.4683 304.698,78.1349 300.5,78.5C 308.442,72.538 317.442,68.7046 327.5,67C 337.623,65.2916 347.623,65.1249 357.5,66.5 Z"/></g>
<g><path style="opacity:1" fill="#c8bac4" d="M 398.5,77.5 C 400.914,78.9108 402.581,80.9108 403.5,83.5C 401.086,82.0892 399.419,80.0892 398.5,77.5 Z"/></g>
<g><path style="opacity:1" fill="#dbcfd6" d="M 477.5,79.5 C 480.167,80.1667 481.833,81.8333 482.5,84.5C 480.5,83.1667 478.833,81.5 477.5,79.5 Z"/></g>
<g><path style="opacity:1" fill="#572c45" d="M 405.5,223.5 C 404.956,221.42 404.122,219.42 403,217.5C 402,217.5 401,217.5 400,217.5C 399.833,216.5 399.667,215.5 399.5,214.5C 401.343,207.224 402.676,199.891 403.5,192.5C 402.225,184.559 400.559,175.392 398.5,165C 400.224,151.208 401.058,137.375 401,123.5C 399.417,121.089 398.417,118.422 398,115.5C 397.841,139.534 398.008,163.534 398.5,187.5C 396.768,203.784 396.101,220.117 396.5,236.5C 395.728,212.327 395.062,187.994 394.5,163.5C 395.498,139.672 395.831,115.672 395.5,91.5C 396.166,87.9792 396.833,84.3125 397.5,80.5C 399.217,81.6685 399.884,83.3352 399.5,85.5C 403.044,85.2388 404.878,86.9055 405,90.5C 406.419,91.4601 407.919,92.2935 409.5,93C 411.164,95.9608 413.164,98.4608 415.5,100.5C 414.175,140.644 414.175,180.81 415.5,221C 415.167,221.833 414.833,222.667 414.5,223.5C 413.813,221.726 412.98,220.059 412,218.5C 411.333,219.167 410.667,219.833 410,220.5C 409.502,223.482 409.335,226.482 409.5,229.5C 408.167,229.5 406.833,229.5 405.5,229.5C 405.5,227.5 405.5,225.5 405.5,223.5 Z"/></g>
<g><path style="opacity:1" fill="#5b324b" d="M 357.5,66.5 C 363.139,66.3998 367.806,68.3998 371.5,72.5C 371.291,73.086 370.957,73.586 370.5,74C 363.069,73.1541 355.569,72.6541 348,72.5C 321.39,71.7895 302.723,83.4562 292,107.5C 288.442,123.765 290.275,139.431 297.5,154.5C 296.167,154.5 294.833,154.5 293.5,154.5C 293.335,157.85 293.502,161.183 294,164.5C 294.465,165.931 295.299,167.097 296.5,168C 295.135,169.682 293.635,169.849 292,168.5C 291.759,165.711 291.092,163.044 290,160.5C 286.416,164.603 285.083,164.269 286,159.5C 285.667,159.833 285.333,160.167 285,160.5C 283.601,159.773 282.101,159.273 280.5,159C 277.852,150.188 277.185,150.355 278.5,159.5C 280.202,163.48 282.535,166.98 285.5,170C 284.833,170.333 284.167,170.667 283.5,171C 285.864,172.012 287.198,173.345 287.5,175C 286.667,177.081 286.667,179.248 287.5,181.5C 286.167,181.5 284.833,181.5 283.5,181.5C 282.465,179.795 282.465,178.128 283.5,176.5C 269.964,151.171 269.13,125.504 281,99.5C 285.703,90.7045 292.203,83.7045 300.5,78.5C 304.698,78.1349 308.698,76.4683 312.5,73.5C 327.084,68.4881 342.084,66.1548 357.5,66.5 Z"/></g>
<g><path style="opacity:1" fill="#562b46" d="M 485.5,87.5 C 498.432,103.889 503.265,122.555 500,143.5C 498.383,152.687 495.383,161.354 491,169.5C 485.503,163.664 480.336,157.498 475.5,151C 484.643,133.849 485.643,116.349 478.5,98.5C 476.483,94.7914 475.483,90.7914 475.5,86.5C 478.806,84.891 481.639,85.5576 484,88.5C 484.383,87.944 484.883,87.6107 485.5,87.5 Z"/></g>
<g><path style="opacity:1" fill="#5b324a" d="M 374.5,82.5 C 372.521,84.1675 370.188,84.8342 367.5,84.5C 366.167,86.8333 366.167,89.1667 367.5,91.5C 366.07,91.5792 364.736,91.2458 363.5,90.5C 362.808,91.0253 362.308,91.6919 362,92.5C 361.759,98.6519 361.592,104.985 361.5,111.5C 362.978,111.762 364.311,111.429 365.5,110.5C 362.878,105.966 362.878,101.466 365.5,97C 365.167,96.6667 364.833,96.3333 364.5,96C 367.108,94.6217 368.608,92.455 369,89.5C 370.574,93.5239 371.574,98.1906 372,103.5C 372.667,110.5 372.667,117.5 372,124.5C 371.667,118.833 371.333,113.167 371,107.5C 370.182,110.107 369.682,112.774 369.5,115.5C 369.601,138.814 369.768,162.147 370,185.5C 370.251,187.433 370.751,189.266 371.5,191C 370.207,191.49 368.873,191.657 367.5,191.5C 367.5,187.167 367.5,182.833 367.5,178.5C 367.492,171.005 367.825,163.672 368.5,156.5C 368.085,154.091 367.418,151.758 366.5,149.5C 365.702,151.078 365.202,152.744 365,154.5C 363.658,155.902 362.824,155.569 362.5,153.5C 360.753,146.226 359.586,138.56 359,130.5C 358.667,131.5 358.333,132.5 358,133.5C 357.306,151.838 357.473,170.338 358.5,189C 357.602,191.094 356.935,193.26 356.5,195.5C 357.218,211.342 357.551,226.842 357.5,242C 355.2,243.113 354.867,244.613 356.5,246.5C 354.22,251.393 352.22,256.393 350.5,261.5C 346.334,263.868 344.334,267.201 344.5,271.5C 342.568,272.145 341.401,273.479 341,275.5C 340.667,274.5 340.333,273.5 340,272.5C 339.86,275.281 338.694,277.447 336.5,279C 338.607,280.264 339.607,282.097 339.5,284.5C 339.5,285.833 338.833,286.5 337.5,286.5C 337.649,285.448 337.483,284.448 337,283.5C 336.667,283.833 336.333,284.167 336,284.5C 334.933,283.809 333.766,283.309 332.5,283C 335.279,282.851 335.779,282.017 334,280.5C 332.129,281.668 330.629,281.168 329.5,279C 330.253,277.513 331.086,277.346 332,278.5C 332.014,276.402 331.847,274.569 331.5,273C 333.174,271.494 334.174,269.661 334.5,267.5C 335.833,267.5 337.167,267.5 338.5,267.5C 334.602,273.562 335.602,274.062 341.5,269C 348.918,261.765 353.085,252.932 354,242.5C 354.373,194.497 354.373,146.497 354,98.5C 359.985,90.5166 366.652,83.1832 374,76.5C 374.495,78.4727 374.662,80.4727 374.5,82.5 Z"/></g>
<g><path style="opacity:1" fill="#93828b" d="M 398.5,77.5 C 397.5,77.5 396.5,77.5 395.5,77.5C 395.5,82.1667 395.5,86.8333 395.5,91.5C 395.831,115.672 395.498,139.672 394.5,163.5C 394.5,134.5 394.5,105.5 394.5,76.5C 396.099,76.2322 397.432,76.5655 398.5,77.5 Z"/></g>
<g><path style="opacity:1" fill="#562544" d="M 367.5,178.5 C 366.675,182.647 366.175,186.981 366,191.5C 365.832,183.479 365.332,175.479 364.5,167.5C 363.909,170.64 363.076,173.64 362,176.5C 361.676,191.353 361.676,206.353 362,221.5C 362.967,223.63 364.134,225.63 365.5,227.5C 362.572,232.485 362.906,237.152 366.5,241.5C 367.425,240.359 368.259,240.359 369,241.5C 370.309,239.109 371.309,239.109 372,241.5C 372.333,240.833 372.667,240.167 373,239.5C 372.034,244.705 371.534,250.038 371.5,255.5C 367.296,259.236 364.629,263.902 363.5,269.5C 363.5,269.833 363.5,270.167 363.5,270.5C 362.25,270.423 361.417,269.756 361,268.5C 360.51,269.793 360.343,271.127 360.5,272.5C 359.127,272.343 357.793,272.51 356.5,273C 357.167,273.333 357.833,273.667 358.5,274C 354.554,276.389 350.887,279.222 347.5,282.5C 344.813,283.26 342.147,283.927 339.5,284.5C 339.607,282.097 338.607,280.264 336.5,279C 338.694,277.447 339.86,275.281 340,272.5C 340.333,273.5 340.667,274.5 341,275.5C 341.401,273.479 342.568,272.145 344.5,271.5C 344.334,267.201 346.334,263.868 350.5,261.5C 352.22,256.393 354.22,251.393 356.5,246.5C 354.867,244.613 355.2,243.113 357.5,242C 357.551,226.842 357.218,211.342 356.5,195.5C 356.935,193.26 357.602,191.094 358.5,189C 357.473,170.338 357.306,151.838 358,133.5C 358.333,132.5 358.667,131.5 359,130.5C 359.586,138.56 360.753,146.226 362.5,153.5C 362.824,155.569 363.658,155.902 365,154.5C 365.202,152.744 365.702,151.078 366.5,149.5C 367.418,151.758 368.085,154.091 368.5,156.5C 367.825,163.672 367.492,171.005 367.5,178.5 Z"/></g>
<g><path style="opacity:1" fill="#4ea297" d="M 465.5,142.5 C 466.376,142.369 467.043,142.702 467.5,143.5C 466.48,145.432 466.313,147.432 467,149.5C 468.221,153.98 470.054,158.146 472.5,162C 471.327,165.11 471.827,165.277 474,162.5C 475.167,163.667 476.333,164.833 477.5,166C 476.833,166.333 476.167,166.667 475.5,167C 476.833,167.333 478.167,167.667 479.5,168C 479.043,168.414 478.709,168.914 478.5,169.5C 479.274,170.711 480.107,170.711 481,169.5C 482.833,172.667 485.333,175.167 488.5,177C 486.833,178 485.167,179 483.5,180C 485.03,185.756 486.696,185.922 488.5,180.5C 489.5,180.5 490.5,180.5 491.5,180.5C 491.5,182.167 491.5,183.833 491.5,185.5C 490.5,185.5 489.5,185.5 488.5,185.5C 487.737,188.141 487.57,190.808 488,193.5C 488.893,192.289 489.726,192.289 490.5,193.5C 487.607,197.757 484.94,202.09 482.5,206.5C 482.667,206.833 482.833,207.167 483,207.5C 484.333,206.833 485.667,206.167 487,205.5C 488.277,207.731 490.111,209.398 492.5,210.5C 489.5,211.167 486.5,211.833 483.5,212.5C 484.5,213.333 485.5,214.167 486.5,215C 486.167,215.333 485.833,215.667 485.5,216C 490.694,216.989 490.694,218.156 485.5,219.5C 477.467,216.605 469.134,215.772 460.5,217C 456.456,218.175 452.789,220.008 449.5,222.5C 448.476,221.147 447.143,220.48 445.5,220.5C 443.669,217.33 444.336,214.83 447.5,213C 447.167,212.667 446.833,212.333 446.5,212C 447.672,211.581 448.672,210.915 449.5,210C 447.905,210.617 446.572,210.284 445.5,209C 446.756,208.583 447.423,207.75 447.5,206.5C 449.578,203.949 452.244,202.116 455.5,201C 460.375,199.198 465.375,197.865 470.5,197C 464.333,190.833 458.167,184.667 452,178.5C 447.498,172.267 447.498,165.933 452,159.5C 456.364,153.646 460.864,147.979 465.5,142.5 Z"/></g>
<g><path style="opacity:1" fill="#000000" d="M 262.5,157.5 C 263.833,158.167 263.833,158.167 262.5,157.5 Z"/></g>
<g><path style="opacity:1" fill="#624254" d="M 261.5,157.5 C 259.836,156.051 259.002,154.051 259,151.5C 258.333,150.167 257.667,150.167 257,151.5C 255.421,154.994 253.587,158.327 251.5,161.5C 252.609,162.965 252.109,163.965 250,164.5C 249.178,166.788 248.511,169.122 248,171.5C 247.311,172.357 246.478,173.023 245.5,173.5C 244.958,176.786 243.958,179.786 242.5,182.5C 242.112,176.829 243.279,171.496 246,166.5C 249.582,158.997 253.915,151.997 259,145.5C 259.333,145.833 259.667,146.167 260,146.5C 260.333,149.5 260.667,152.5 261,155.5C 261.654,154.304 262.154,154.304 262.5,155.5C 262.137,156.183 261.804,156.85 261.5,157.5 Z"/></g>
<g><path style="opacity:1" fill="#6d6d6d" d="M 131.5,166.5 C 137.916,166.262 138.083,167.262 132,169.5C 130.317,168.824 130.15,167.824 131.5,166.5 Z"/></g>
<g><path style="opacity:1" fill="#000000" d="M 129.5,172.5 C 128.475,172.103 128.308,171.437 129,170.5C 129.464,171.094 129.631,171.761 129.5,172.5 Z"/></g>
<g><path style="opacity:1" fill="#552a43" d="M 261.5,157.5 C 262.64,159.78 263.807,162.114 265,164.5C 269.048,168.88 272.715,173.546 276,178.5C 276.741,179.641 277.575,179.641 278.5,178.5C 279.549,180.216 280.882,181.549 282.5,182.5C 283.506,183.396 283.506,184.062 282.5,184.5C 281.167,184.833 281.167,185.167 282.5,185.5C 283.738,185.81 283.738,186.31 282.5,187C 283.784,187.684 284.951,187.517 286,186.5C 286.816,187.823 287.983,188.489 289.5,188.5C 288.341,189.74 287.341,191.074 286.5,192.5C 286.5,191.167 286.5,189.833 286.5,188.5C 284.425,188.698 282.425,188.865 280.5,189C 279.333,187.167 278.167,185.333 277,183.5C 276.405,184.899 276.572,186.232 277.5,187.5C 274.603,188.909 271.937,188.576 269.5,186.5C 264.616,188.249 260.45,190.916 257,194.5C 256.667,194.167 256.333,193.833 256,193.5C 255.333,194.5 255.333,195.5 256,196.5C 259.983,198.299 262.149,201.299 262.5,205.5C 256.895,200.397 251.395,195.064 246,189.5C 244.295,187.423 243.128,185.09 242.5,182.5C 243.958,179.786 244.958,176.786 245.5,173.5C 246.478,173.023 247.311,172.357 248,171.5C 248.511,169.122 249.178,166.788 250,164.5C 252.109,163.965 252.609,162.965 251.5,161.5C 253.587,158.327 255.421,154.994 257,151.5C 257.667,150.167 258.333,150.167 259,151.5C 259.002,154.051 259.836,156.051 261.5,157.5 Z"/></g>
<g><path style="opacity:1" fill="#582943" d="M 212.5,174.5 C 212.5,174.833 212.5,175.167 212.5,175.5C 212.451,180.543 210.284,184.21 206,186.5C 199.173,184.846 197.173,180.846 200,174.5C 203.89,173.337 208.057,173.337 212.5,174.5 Z"/></g>
<g><path style="opacity:1" fill="#674557" d="M 212.5,174.5 C 208.057,173.337 203.89,173.337 200,174.5C 197.173,180.846 199.173,184.846 206,186.5C 210.284,184.21 212.451,180.543 212.5,175.5C 215.284,184.404 211.951,188.57 202.5,188C 195.958,184.708 194.458,179.875 198,173.5C 200.995,170.735 204.495,169.902 208.5,171C 210.544,171.498 211.878,172.665 212.5,174.5 Z"/></g>
<g><path style="opacity:1" fill="#694359" d="M 111.5,191.5 C 111.018,187.766 112.351,184.933 115.5,183C 110.081,185.062 105.748,188.729 102.5,194C 103.409,195.789 103.576,197.623 103,199.5C 100.681,198.989 98.5142,199.656 96.5,201.5C 103.613,187.439 114.613,177.772 129.5,172.5C 133.509,172.142 137.509,171.642 141.5,171C 140.304,170.346 140.304,169.846 141.5,169.5C 143.603,171.064 144.436,173.064 144,175.5C 131.132,177.018 120.299,182.351 111.5,191.5 Z"/></g>
<g><path style="opacity:1" fill="#532641" d="M 374.5,82.5 C 375.621,133 376.121,183.667 376,234.5C 375.435,241.832 373.935,248.832 371.5,255.5C 371.534,250.038 372.034,244.705 373,239.5C 372.667,240.167 372.333,240.833 372,241.5C 371.309,239.109 370.309,239.109 369,241.5C 368.259,240.359 367.425,240.359 366.5,241.5C 362.906,237.152 362.572,232.485 365.5,227.5C 364.134,225.63 362.967,223.63 362,221.5C 361.676,206.353 361.676,191.353 362,176.5C 363.076,173.64 363.909,170.64 364.5,167.5C 365.332,175.479 365.832,183.479 366,191.5C 366.175,186.981 366.675,182.647 367.5,178.5C 367.5,182.833 367.5,187.167 367.5,191.5C 368.873,191.657 370.207,191.49 371.5,191C 370.751,189.266 370.251,187.433 370,185.5C 369.768,162.147 369.601,138.814 369.5,115.5C 369.682,112.774 370.182,110.107 371,107.5C 371.333,113.167 371.667,118.833 372,124.5C 372.667,117.5 372.667,110.5 372,103.5C 371.574,98.1906 370.574,93.5239 369,89.5C 368.608,92.455 367.108,94.6217 364.5,96C 364.833,96.3333 365.167,96.6667 365.5,97C 362.878,101.466 362.878,105.966 365.5,110.5C 364.311,111.429 362.978,111.762 361.5,111.5C 361.592,104.985 361.759,98.6519 362,92.5C 362.308,91.6919 362.808,91.0253 363.5,90.5C 364.736,91.2458 366.07,91.5792 367.5,91.5C 366.167,89.1667 366.167,86.8333 367.5,84.5C 370.188,84.8342 372.521,84.1675 374.5,82.5 Z"/></g>
<g><path style="opacity:1" fill="#57a299" d="M 465.5,142.5 C 466.209,141.596 467.209,141.263 468.5,141.5C 468.178,145.747 469.011,149.747 471,153.5C 482.714,167.546 494.048,181.879 505,196.5C 513.913,212.795 511.746,227.461 498.5,240.5C 492.427,222.473 479.761,215.306 460.5,219C 450.86,221.305 444.36,227.138 441,236.5C 438.422,245.902 439.422,254.902 444,263.5C 447.35,268.672 451.183,273.338 455.5,277.5C 452.794,277.425 450.127,277.092 447.5,276.5C 444.975,276.023 442.975,274.69 441.5,272.5C 440.833,271.167 439.833,270.167 438.5,269.5C 427.469,252.745 426.636,235.412 436,217.5C 439.064,212.934 442.898,209.267 447.5,206.5C 447.423,207.75 446.756,208.583 445.5,209C 446.572,210.284 447.905,210.617 449.5,210C 448.672,210.915 447.672,211.581 446.5,212C 446.833,212.333 447.167,212.667 447.5,213C 444.336,214.83 443.669,217.33 445.5,220.5C 447.143,220.48 448.476,221.147 449.5,222.5C 452.789,220.008 456.456,218.175 460.5,217C 469.134,215.772 477.467,216.605 485.5,219.5C 490.694,218.156 490.694,216.989 485.5,216C 485.833,215.667 486.167,215.333 486.5,215C 485.5,214.167 484.5,213.333 483.5,212.5C 486.5,211.833 489.5,211.167 492.5,210.5C 490.111,209.398 488.277,207.731 487,205.5C 485.667,206.167 484.333,206.833 483,207.5C 482.833,207.167 482.667,206.833 482.5,206.5C 484.94,202.09 487.607,197.757 490.5,193.5C 489.726,192.289 488.893,192.289 488,193.5C 487.57,190.808 487.737,188.141 488.5,185.5C 489.5,185.5 490.5,185.5 491.5,185.5C 491.5,183.833 491.5,182.167 491.5,180.5C 490.5,180.5 489.5,180.5 488.5,180.5C 486.696,185.922 485.03,185.756 483.5,180C 485.167,179 486.833,178 488.5,177C 485.333,175.167 482.833,172.667 481,169.5C 480.107,170.711 479.274,170.711 478.5,169.5C 478.709,168.914 479.043,168.414 479.5,168C 478.167,167.667 476.833,167.333 475.5,167C 476.167,166.667 476.833,166.333 477.5,166C 476.333,164.833 475.167,163.667 474,162.5C 471.827,165.277 471.327,165.11 472.5,162C 470.054,158.146 468.221,153.98 467,149.5C 466.313,147.432 466.48,145.432 467.5,143.5C 467.043,142.702 466.376,142.369 465.5,142.5 Z"/></g>
<g><path style="opacity:1" fill="#52a197" d="M 576.5,245.5 C 574.59,246.975 573.424,248.975 573,251.5C 572.667,249.833 572.333,248.167 572,246.5C 571.667,247.167 571.333,247.833 571,248.5C 569.519,247.529 568.685,246.196 568.5,244.5C 568.221,241.882 567.554,239.382 566.5,237C 555.121,236.397 543.788,235.397 532.5,234C 528.359,232.526 525.526,229.693 524,225.5C 523.593,215.045 526.26,205.378 532,196.5C 538.176,186.815 544.843,177.481 552,168.5C 553.011,167.663 554.178,167.33 555.5,167.5C 553.717,174.045 554.217,180.378 557,186.5C 562.626,193.794 568.626,200.794 575,207.5C 582.944,219.798 583.444,232.465 576.5,245.5 Z M 547.5,212.5 C 545.319,212.086 542.985,211.919 540.5,212C 536.21,209.469 535.377,205.969 538,201.5C 538.251,203.433 538.751,205.266 539.5,207C 538.007,208.156 538.174,208.99 540,209.5C 541.221,208.728 542.221,207.728 543,206.5C 544.332,208.66 545.832,210.66 547.5,212.5 Z"/></g>
<g><path style="opacity:1" fill="#664558" d="M 192.5,192.5 C 194.533,195.013 197.199,196.513 200.5,197C 237.638,195.55 251.638,212.05 242.5,246.5C 241.853,245.726 241.52,244.726 241.5,243.5C 244.009,232.169 242.842,220.835 238,209.5C 236.057,208.193 234.223,208.193 232.5,209.5C 232.782,207.432 231.949,205.432 230,203.5C 229.667,203.833 229.333,204.167 229,204.5C 226.429,203.599 224.096,202.266 222,200.5C 220.333,201.167 218.667,201.833 217,202.5C 210.621,201.091 204.121,200.258 197.5,200C 193.709,198.92 192.043,196.42 192.5,192.5 Z"/></g>
<g><path style="opacity:1" fill="#c2b5bc" d="M 286.5,195.5 C 287.268,196.263 287.768,197.263 288,198.5C 288.82,205.014 288.653,211.347 287.5,217.5C 287.683,210.132 287.35,202.799 286.5,195.5 Z"/></g>
<g><path style="opacity:1" fill="#57a39a" d="M 626.5,269.5 C 624.801,269.66 623.134,269.494 621.5,269C 623.946,267.517 623.612,266.351 620.5,265.5C 619.522,265.977 618.689,266.643 618,267.5C 616.352,266.283 614.519,265.45 612.5,265C 614.481,264.395 614.815,263.395 613.5,262C 615.663,261.755 617.33,260.755 618.5,259C 620.441,258.257 622.274,258.424 624,259.5C 625.682,258.135 625.849,256.635 624.5,255C 625.71,253.961 626.71,252.794 627.5,251.5C 630.165,248.665 632.665,245.665 635,242.5C 639.269,236.09 639.269,229.756 635,223.5C 628.374,218.543 622.04,213.209 616,207.5C 610.8,201.364 610.134,194.698 614,187.5C 616.635,182.702 619.468,178.035 622.5,173.5C 623.689,172.571 625.022,172.238 626.5,172.5C 626.035,176.792 626.868,180.792 629,184.5C 635.049,191.548 640.716,198.881 646,206.5C 648.926,227.461 644.593,246.794 633,264.5C 631.242,266.765 629.075,268.432 626.5,269.5 Z"/></g>
<g><path style="opacity:1" fill="#86687a" d="M 325.5,196.5 C 329.685,200.708 332.685,205.708 334.5,211.5C 331.916,210.952 330.916,209.285 331.5,206.5C 330.5,206.5 329.5,206.5 328.5,206.5C 328.631,202.779 327.631,199.446 325.5,196.5 Z"/></g>
<g><path style="opacity:1" fill="#ddbfcf" d="M 105.5,202.5 C 105.198,205.373 104.531,208.039 103.5,210.5C 103.111,207.447 103.777,204.78 105.5,202.5 Z"/></g>
<g><path style="opacity:1" fill="#634255" d="M 299.5,202.5 C 303.987,202.141 305.654,203.974 304.5,208C 305.76,209.113 306.927,209.28 308,208.5C 308.067,211.311 309.234,213.477 311.5,215C 311.355,215.772 311.022,216.439 310.5,217C 311.766,217.309 312.933,217.809 314,218.5C 314.386,223.519 316.552,226.685 320.5,228C 319.601,231.778 320.935,234.611 324.5,236.5C 323.849,238.811 324.682,240.811 327,242.5C 327.719,246.145 328.219,249.812 328.5,253.5C 325.937,246.363 322.77,239.363 319,232.5C 312.277,222.617 305.777,212.617 299.5,202.5 Z"/></g>
<g><path style="opacity:1" fill="#cfbfcb" d="M 267.5,210.5 C 270.833,211.833 273.167,214.167 274.5,217.5C 271.833,215.5 269.5,213.167 267.5,210.5 Z"/></g>
<g><path style="opacity:1" fill="#552643" d="M 297.5,154.5 C 306.322,168.802 315.656,182.802 325.5,196.5C 327.631,199.446 328.631,202.779 328.5,206.5C 329.5,206.5 330.5,206.5 331.5,206.5C 330.916,209.285 331.916,210.952 334.5,211.5C 335.901,217.227 337.234,222.727 338.5,228C 335.492,231.958 332.326,231.791 329,227.5C 328.075,228.047 327.242,228.713 326.5,229.5C 327.326,230.451 327.492,231.451 327,232.5C 325.627,232.596 324.127,232.43 322.5,232C 324.037,233.11 324.703,234.61 324.5,236.5C 320.935,234.611 319.601,231.778 320.5,228C 316.552,226.685 314.386,223.519 314,218.5C 312.933,217.809 311.766,217.309 310.5,217C 311.022,216.439 311.355,215.772 311.5,215C 309.234,213.477 308.067,211.311 308,208.5C 306.927,209.28 305.76,209.113 304.5,208C 305.654,203.974 303.987,202.141 299.5,202.5C 296.126,197.243 292.793,192.576 289.5,188.5C 287.983,188.489 286.816,187.823 286,186.5C 284.951,187.517 283.784,187.684 282.5,187C 283.738,186.31 283.738,185.81 282.5,185.5C 282.5,185.167 282.5,184.833 282.5,184.5C 283.506,184.062 283.506,183.396 282.5,182.5C 283.167,182.5 283.5,182.167 283.5,181.5C 284.833,181.5 286.167,181.5 287.5,181.5C 286.667,179.248 286.667,177.081 287.5,175C 287.198,173.345 285.864,172.012 283.5,171C 284.167,170.667 284.833,170.333 285.5,170C 282.535,166.98 280.202,163.48 278.5,159.5C 277.185,150.355 277.852,150.188 280.5,159C 282.101,159.273 283.601,159.773 285,160.5C 285.333,160.167 285.667,159.833 286,159.5C 285.083,164.269 286.416,164.603 290,160.5C 291.092,163.044 291.759,165.711 292,168.5C 293.635,169.849 295.135,169.682 296.5,168C 295.299,167.097 294.465,165.931 294,164.5C 293.502,161.183 293.335,157.85 293.5,154.5C 294.833,154.5 296.167,154.5 297.5,154.5 Z"/></g>
<g><path style="opacity:1" fill="#562e46" d="M 398.5,77.5 C 399.419,80.0892 401.086,82.0892 403.5,83.5C 408.353,87.5289 412.52,92.1956 416,97.5C 416.17,145.176 416.836,192.842 418,240.5C 419.169,248.846 422.002,256.513 426.5,263.5C 427.451,265.472 428.451,267.472 429.5,269.5C 445.276,280.628 462.609,283.628 481.5,278.5C 483.135,279.046 484.801,279.38 486.5,279.5C 486.5,279.833 486.5,280.167 486.5,280.5C 485.596,281.209 485.263,282.209 485.5,283.5C 481.244,284.598 477.077,285.931 473,287.5C 471.413,286.273 470.079,286.606 469,288.5C 468.107,287.919 467.107,287.585 466,287.5C 461.725,289.262 456.892,290.262 451.5,290.5C 435.345,290.461 422.012,284.461 411.5,272.5C 413.086,273.413 414.586,273.413 416,272.5C 416.333,273.833 416.667,275.167 417,276.5C 418,277.833 419,277.833 420,276.5C 422.053,280.292 425.219,281.458 429.5,280C 427.117,279.935 426.45,279.102 427.5,277.5C 427.192,276.692 426.692,276.025 426,275.5C 424.732,275.616 423.398,275.949 422,276.5C 421.5,275.333 420.667,274.5 419.5,274C 420.167,273.667 420.833,273.333 421.5,273C 419.771,271.211 419.104,269.044 419.5,266.5C 420.822,266.33 421.989,266.663 423,267.5C 423.87,266.892 424.37,266.059 424.5,265C 423.318,263.265 421.651,262.265 419.5,262C 420.929,258.603 420.262,255.603 417.5,253C 418.451,252.282 418.617,251.449 418,250.5C 417,251.833 416,251.833 415,250.5C 413.383,251.536 413.216,252.703 414.5,254C 413.057,255.067 411.724,256.234 410.5,257.5C 409.82,254.64 408.487,252.14 406.5,250C 407.609,248.187 406.942,247.354 404.5,247.5C 404.84,244.856 404.173,242.523 402.5,240.5C 404.746,239.017 405.579,237.017 405,234.5C 404.667,235.167 404.333,235.833 404,236.5C 403.833,234.333 403.667,232.167 403.5,230C 403.533,227.39 404.2,225.223 405.5,223.5C 405.5,225.5 405.5,227.5 405.5,229.5C 406.833,229.5 408.167,229.5 409.5,229.5C 409.335,226.482 409.502,223.482 410,220.5C 410.667,219.833 411.333,219.167 412,218.5C 412.98,220.059 413.813,221.726 414.5,223.5C 414.833,222.667 415.167,221.833 415.5,221C 414.175,180.81 414.175,140.644 415.5,100.5C 413.164,98.4608 411.164,95.9608 409.5,93C 407.919,92.2935 406.419,91.4601 405,90.5C 404.878,86.9055 403.044,85.2388 399.5,85.5C 399.884,83.3352 399.217,81.6685 397.5,80.5C 396.833,84.3125 396.166,87.9792 395.5,91.5C 395.5,86.8333 395.5,82.1667 395.5,77.5C 396.5,77.5 397.5,77.5 398.5,77.5 Z"/></g>
<g><path style="opacity:1" fill="#7d606f" d="M 287.5,217.5 C 287.344,223.767 286.344,229.767 284.5,235.5C 284.172,230.125 284.505,224.792 285.5,219.5C 286.182,218.757 286.849,218.091 287.5,217.5 Z"/></g>
<g><path style="opacity:1" fill="#937a8c" d="M 104.5,214.5 C 104.332,218.658 104.998,222.658 106.5,226.5C 105.504,226.586 104.671,226.252 104,225.5C 103.19,221.642 103.357,217.976 104.5,214.5 Z"/></g>
<g><path style="opacity:1" fill="#572a46" d="M 192.5,192.5 C 192.043,196.42 193.709,198.92 197.5,200C 204.121,200.258 210.621,201.091 217,202.5C 218.667,201.833 220.333,201.167 222,200.5C 224.096,202.266 226.429,203.599 229,204.5C 229.333,204.167 229.667,203.833 230,203.5C 231.949,205.432 232.782,207.432 232.5,209.5C 231.617,212.608 229.784,214.941 227,216.5C 226.667,216.167 226.333,215.833 226,215.5C 223.034,217.933 223.2,219.433 226.5,220C 223.912,223.882 224.579,224.382 228.5,221.5C 228.833,222.167 229.167,222.833 229.5,223.5C 229.178,225.722 229.845,227.556 231.5,229C 230.133,231.672 229.133,234.505 228.5,237.5C 228.913,234.631 228.413,231.631 227,228.5C 226.632,229.91 225.799,230.91 224.5,231.5C 224.437,228.809 222.77,227.976 219.5,229C 221.891,229.691 221.891,230.691 219.5,232C 220.694,234.444 220.194,236.611 218,238.5C 217.331,235.972 216.498,235.972 215.5,238.5C 211.893,239.489 208.226,239.823 204.5,239.5C 204.383,237.516 205.05,235.85 206.5,234.5C 209.421,235.407 212.421,235.74 215.5,235.5C 215.48,233.857 216.147,232.524 217.5,231.5C 202.878,230.34 202.878,229.506 217.5,229C 214.833,228.667 212.167,228.333 209.5,228C 211.301,227.683 211.634,227.016 210.5,226C 214.894,225.697 219.227,225.03 223.5,224C 222.748,223.329 222.414,222.496 222.5,221.5C 222.167,220.5 221.5,219.833 220.5,219.5C 220.167,218.167 219.833,218.167 219.5,219.5C 217.738,219.357 216.071,219.691 214.5,220.5C 213.304,220.154 213.304,219.654 214.5,219C 206.993,217.99 199.66,218.49 192.5,220.5C 190.715,218.823 190.049,216.989 190.5,215C 191.328,214.085 192.328,213.419 193.5,213C 191.251,212.137 189.418,212.637 188,214.5C 185.907,213.754 183.907,213.421 182,213.5C 181.696,215.441 180.863,217.107 179.5,218.5C 180.127,219.417 180.461,220.417 180.5,221.5C 181.449,222.152 182.615,222.486 184,222.5C 185.681,222.392 186.848,221.725 187.5,220.5C 187.369,219.624 187.702,218.957 188.5,218.5C 188.979,221.362 190.979,223.196 194.5,224C 192.51,225.751 190.177,226.751 187.5,227C 188.833,227.333 190.167,227.667 191.5,228C 188.284,230.59 184.784,231.09 181,229.5C 178.815,229.921 176.649,230.421 174.5,231C 175.833,232.667 175.833,234.333 174.5,236C 176.767,237.608 177.767,236.775 177.5,233.5C 179.722,233.178 181.556,233.845 183,235.5C 183.324,233.431 184.158,233.098 185.5,234.5C 187.337,236.645 188.337,238.811 188.5,241C 186.597,241.774 184.93,241.44 183.5,240C 186,239.167 186.167,238 184,236.5C 183.167,237.333 182.333,238.167 181.5,239C 176.183,239.331 171.183,240.664 166.5,243C 165.809,244.067 165.309,245.234 165,246.5C 164.667,246.167 164.333,245.833 164,245.5C 163.011,249.039 161.845,252.039 160.5,254.5C 160.045,252.107 159.711,249.774 159.5,247.5C 160.362,245.49 160.862,243.49 161,241.5C 159.89,243.037 158.39,243.703 156.5,243.5C 150.864,237.032 144.697,231.032 138,225.5C 134.729,220.439 134.062,215.106 136,209.5C 139.414,203.003 143.081,196.67 147,190.5C 148.065,195.467 149.065,200.467 150,205.5C 154.817,212.142 160.317,218.142 166.5,223.5C 167.542,222.209 168.708,222.209 170,223.5C 170.483,222.552 170.649,221.552 170.5,220.5C 176.559,208.714 182.392,196.714 188,184.5C 189,183.167 190,183.167 191,184.5C 191.272,187.254 191.772,189.921 192.5,192.5 Z M 166.5,223.5 C 168.085,224.002 168.585,225.002 168,226.5C 166.961,225.756 166.461,224.756 166.5,223.5 Z M 187.5,220.5 C 186.848,221.725 185.681,222.392 184,222.5C 182.615,222.486 181.449,222.152 180.5,221.5C 182.42,218.102 184.753,217.769 187.5,220.5 Z M 219.5,219.5 C 219.833,219.5 220.167,219.5 220.5,219.5C 221.5,219.833 222.167,220.5 222.5,221.5C 214.479,221.343 206.479,221.677 198.5,222.5C 196.833,222.333 195.167,222.167 193.5,222C 192.944,221.617 192.611,221.117 192.5,220.5C 199.66,218.49 206.993,217.99 214.5,219C 213.304,219.654 213.304,220.154 214.5,220.5C 216.071,219.691 217.738,219.357 219.5,219.5 Z"/></g>
<g><path style="opacity:1" fill="#000000" d="M 170.5,220.5 C 169.833,219.167 169.833,219.167 170.5,220.5 Z"/></g>
<g><path style="opacity:1" fill="#5a3048" d="M 242.5,246.5 C 241.402,250.589 239.068,251.423 235.5,249C 235.004,247.004 234.004,245.337 232.5,244C 211.833,243.333 191.167,243.333 170.5,244C 161.435,257.31 152.768,270.81 144.5,284.5C 143.143,285.685 141.643,286.685 140,287.5C 138.405,286.644 137.572,285.311 137.5,283.5C 138.802,284.807 140.135,284.807 141.5,283.5C 143.978,278.955 146.311,274.455 148.5,270C 147.833,269.667 147.167,269.333 146.5,269C 147.381,268.292 148.047,267.458 148.5,266.5C 152.343,260.818 155.676,254.818 158.5,248.5C 157.544,246.925 156.877,245.258 156.5,243.5C 158.39,243.703 159.89,243.037 161,241.5C 160.862,243.49 160.362,245.49 159.5,247.5C 159.711,249.774 160.045,252.107 160.5,254.5C 161.845,252.039 163.011,249.039 164,245.5C 164.333,245.833 164.667,246.167 165,246.5C 165.309,245.234 165.809,244.067 166.5,243C 171.183,240.664 176.183,239.331 181.5,239C 182.333,238.167 183.167,237.333 184,236.5C 186.167,238 186,239.167 183.5,240C 184.93,241.44 186.597,241.774 188.5,241C 188.337,238.811 187.337,236.645 185.5,234.5C 184.158,233.098 183.324,233.431 183,235.5C 181.556,233.845 179.722,233.178 177.5,233.5C 177.767,236.775 176.767,237.608 174.5,236C 175.833,234.333 175.833,232.667 174.5,231C 176.649,230.421 178.815,229.921 181,229.5C 184.784,231.09 188.284,230.59 191.5,228C 190.167,227.667 188.833,227.333 187.5,227C 190.177,226.751 192.51,225.751 194.5,224C 190.979,223.196 188.979,221.362 188.5,218.5C 187.702,218.957 187.369,219.624 187.5,220.5C 184.753,217.769 182.42,218.102 180.5,221.5C 180.461,220.417 180.127,219.417 179.5,218.5C 180.863,217.107 181.696,215.441 182,213.5C 183.907,213.421 185.907,213.754 188,214.5C 189.418,212.637 191.251,212.137 193.5,213C 192.328,213.419 191.328,214.085 190.5,215C 190.049,216.989 190.715,218.823 192.5,220.5C 192.611,221.117 192.944,221.617 193.5,222C 195.167,222.167 196.833,222.333 198.5,222.5C 206.479,221.677 214.479,221.343 222.5,221.5C 222.414,222.496 222.748,223.329 223.5,224C 219.227,225.03 214.894,225.697 210.5,226C 211.634,227.016 211.301,227.683 209.5,228C 212.167,228.333 214.833,228.667 217.5,229C 202.878,229.506 202.878,230.34 217.5,231.5C 216.147,232.524 215.48,233.857 215.5,235.5C 212.421,235.74 209.421,235.407 206.5,234.5C 205.05,235.85 204.383,237.516 204.5,239.5C 208.226,239.823 211.893,239.489 215.5,238.5C 216.498,235.972 217.331,235.972 218,238.5C 220.194,236.611 220.694,234.444 219.5,232C 221.891,230.691 221.891,229.691 219.5,229C 222.77,227.976 224.437,228.809 224.5,231.5C 225.799,230.91 226.632,229.91 227,228.5C 228.413,231.631 228.913,234.631 228.5,237.5C 229.133,234.505 230.133,231.672 231.5,229C 229.845,227.556 229.178,225.722 229.5,223.5C 230.833,224.167 232.167,224.833 233.5,225.5C 232.871,223.003 231.204,221.67 228.5,221.5C 224.579,224.382 223.912,223.882 226.5,220C 223.2,219.433 223.034,217.933 226,215.5C 226.333,215.833 226.667,216.167 227,216.5C 229.784,214.941 231.617,212.608 232.5,209.5C 234.223,208.193 236.057,208.193 238,209.5C 242.842,220.835 244.009,232.169 241.5,243.5C 241.52,244.726 241.853,245.726 242.5,246.5 Z M 228.5,221.5 C 231.204,221.67 232.871,223.003 233.5,225.5C 232.167,224.833 230.833,224.167 229.5,223.5C 229.167,222.833 228.833,222.167 228.5,221.5 Z M 219.5,219.5 C 219.833,219.5 220.167,219.5 220.5,219.5C 221.5,219.833 222.167,220.5 222.5,221.5C 214.479,221.343 206.479,221.677 198.5,222.5C 196.833,222.333 195.167,222.167 193.5,222C 192.944,221.617 192.611,221.117 192.5,220.5C 199.66,218.49 206.993,217.99 214.5,219C 213.304,219.654 213.304,220.154 214.5,220.5C 216.071,219.691 217.738,219.357 219.5,219.5 Z"/></g>
<g><path style="opacity:1" fill="#572b45" d="M 111.5,191.5 C 109.43,195.208 107.43,198.875 105.5,202.5C 103.777,204.78 103.111,207.447 103.5,210.5C 103.833,211.833 104.167,213.167 104.5,214.5C 103.357,217.976 103.19,221.642 104,225.5C 104.671,226.252 105.504,226.586 106.5,226.5C 108.725,230.604 111.225,234.604 114,238.5C 118.19,241.934 122.19,245.6 126,249.5C 126.718,248.549 127.551,248.383 128.5,249C 129.47,250.68 130.47,252.18 131.5,253.5C 131.751,255.17 132.418,256.67 133.5,258C 131.754,261.914 128.754,264.081 124.5,264.5C 123.533,266.63 122.366,268.63 121,270.5C 120.329,269.748 119.496,269.414 118.5,269.5C 113.202,264.703 108.035,259.703 103,254.5C 91.2874,237.913 89.1208,220.246 96.5,201.5C 98.5142,199.656 100.681,198.989 103,199.5C 103.576,197.623 103.409,195.789 102.5,194C 105.748,188.729 110.081,185.062 115.5,183C 112.351,184.933 111.018,187.766 111.5,191.5 Z"/></g>
<g><path style="opacity:1" fill="#572c46" d="M 334.5,211.5 C 340.853,222.399 344.52,234.232 345.5,247C 345.069,254.595 342.735,261.428 338.5,267.5C 337.167,267.5 335.833,267.5 334.5,267.5C 334.174,269.661 333.174,271.494 331.5,273C 331.847,274.569 332.014,276.402 332,278.5C 331.086,277.346 330.253,277.513 329.5,279C 330.629,281.168 332.129,281.668 334,280.5C 335.779,282.017 335.279,282.851 332.5,283C 333.766,283.309 334.933,283.809 336,284.5C 336.333,284.167 336.667,283.833 337,283.5C 337.483,284.448 337.649,285.448 337.5,286.5C 336.328,287.705 334.995,287.705 333.5,286.5C 332.614,287.325 332.281,288.325 332.5,289.5C 330.901,289.232 329.568,289.566 328.5,290.5C 321.833,291.833 315.167,291.833 308.5,290.5C 307.426,288.716 305.76,287.549 303.5,287C 298.791,286.676 294.458,286.009 290.5,285C 289.651,282.382 289.651,280.049 290.5,278C 291.793,277.51 293.127,277.343 294.5,277.5C 303.476,279.455 312.143,278.622 320.5,275C 326.998,269.346 329.665,262.179 328.5,253.5C 328.219,249.812 327.719,246.145 327,242.5C 324.682,240.811 323.849,238.811 324.5,236.5C 324.703,234.61 324.037,233.11 322.5,232C 324.127,232.43 325.627,232.596 327,232.5C 327.492,231.451 327.326,230.451 326.5,229.5C 327.242,228.713 328.075,228.047 329,227.5C 332.326,231.791 335.492,231.958 338.5,228C 337.234,222.727 335.901,217.227 334.5,211.5 Z"/></g>
<g><path style="opacity:1" fill="#000000" d="M 255.5,254.5 C 256.833,255.167 256.833,255.167 255.5,254.5 Z"/></g>
<g><path style="opacity:1" fill="#552643" d="M 405.5,223.5 C 404.2,225.223 403.533,227.39 403.5,230C 403.667,232.167 403.833,234.333 404,236.5C 404.333,235.833 404.667,235.167 405,234.5C 405.579,237.017 404.746,239.017 402.5,240.5C 404.173,242.523 404.84,244.856 404.5,247.5C 406.942,247.354 407.609,248.187 406.5,250C 408.487,252.14 409.82,254.64 410.5,257.5C 411.724,256.234 413.057,255.067 414.5,254C 413.216,252.703 413.383,251.536 415,250.5C 416,251.833 417,251.833 418,250.5C 418.617,251.449 418.451,252.282 417.5,253C 420.262,255.603 420.929,258.603 419.5,262C 421.651,262.265 423.318,263.265 424.5,265C 424.37,266.059 423.87,266.892 423,267.5C 421.989,266.663 420.822,266.33 419.5,266.5C 419.104,269.044 419.771,271.211 421.5,273C 420.833,273.333 420.167,273.667 419.5,274C 420.667,274.5 421.5,275.333 422,276.5C 423.398,275.949 424.732,275.616 426,275.5C 426.692,276.025 427.192,276.692 427.5,277.5C 426.45,279.102 427.117,279.935 429.5,280C 425.219,281.458 422.053,280.292 420,276.5C 419,277.833 418,277.833 417,276.5C 416.667,275.167 416.333,273.833 416,272.5C 414.586,273.413 413.086,273.413 411.5,272.5C 402.667,262.159 397.667,250.159 396.5,236.5C 396.101,220.117 396.768,203.784 398.5,187.5C 398.008,163.534 397.841,139.534 398,115.5C 398.417,118.422 399.417,121.089 401,123.5C 401.058,137.375 400.224,151.208 398.5,165C 400.559,175.392 402.225,184.559 403.5,192.5C 402.676,199.891 401.343,207.224 399.5,214.5C 399.667,215.5 399.833,216.5 400,217.5C 401,217.5 402,217.5 403,217.5C 404.122,219.42 404.956,221.42 405.5,223.5 Z"/></g>
<g><path style="opacity:1" fill="#75596a" d="M 371.5,255.5 C 370.057,260.925 367.39,265.591 363.5,269.5C 364.629,263.902 367.296,259.236 371.5,255.5 Z"/></g>
<g><path style="opacity:1" fill="#5ea8a0" d="M 568.5,244.5 C 568.685,246.196 569.519,247.529 571,248.5C 571.333,247.833 571.667,247.167 572,246.5C 572.333,248.167 572.667,249.833 573,251.5C 573.424,248.975 574.59,246.975 576.5,245.5C 575.02,248.375 574.353,251.208 574.5,254C 587.427,260.04 600.76,261.373 614.5,258C 618.886,255.807 623.22,253.64 627.5,251.5C 626.71,252.794 625.71,253.961 624.5,255C 625.849,256.635 625.682,258.135 624,259.5C 622.274,258.424 620.441,258.257 618.5,259C 617.33,260.755 615.663,261.755 613.5,262C 614.815,263.395 614.481,264.395 612.5,265C 614.519,265.45 616.352,266.283 618,267.5C 618.689,266.643 619.522,265.977 620.5,265.5C 623.612,266.351 623.946,267.517 621.5,269C 623.134,269.494 624.801,269.66 626.5,269.5C 625.158,270.793 623.491,271.626 621.5,272C 616.5,272.667 611.5,272.667 606.5,272C 594.39,267.778 582.39,263.278 570.5,258.5C 566.272,263.897 561.272,268.397 555.5,272C 550.589,273.492 545.589,273.826 540.5,273C 525.131,268.976 510.465,263.309 496.5,256C 497.226,254.603 498.393,253.769 500,253.5C 508.007,256.28 516.173,258.447 524.5,260C 542.094,262.859 556.76,257.693 568.5,244.5 Z"/></g>
<g><path style="opacity:1" fill="#474747" d="M 146.5,264.5 C 146.783,263.711 147.283,263.044 148,262.5C 148.528,263.816 148.028,264.483 146.5,264.5 Z"/></g>
<g><path style="opacity:1" fill="#5b334b" d="M 280.5,248.5 C 277.166,260.334 270.499,269.834 260.5,277C 251.575,280.341 242.741,280.174 234,276.5C 233.667,276.833 233.333,277.167 233,277.5C 222.276,272.773 211.11,267.94 199.5,263C 198.055,261.29 197.222,259.456 197,257.5C 197.561,256.978 198.228,256.645 199,256.5C 201.747,256.837 204.58,257.004 207.5,257C 211.631,260.04 216.297,261.873 221.5,262.5C 226.471,261.283 231.471,261.283 236.5,262.5C 240.82,262.105 244.82,260.772 248.5,258.5C 249.107,258.624 249.44,258.957 249.5,259.5C 249.918,260.222 250.584,260.722 251.5,261C 248.261,262.269 245.595,264.269 243.5,267C 246.828,266.167 248.161,267.667 247.5,271.5C 243.446,271.21 242.946,271.877 246,273.5C 246.414,273.043 246.914,272.709 247.5,272.5C 248.27,274.272 249.603,275.272 251.5,275.5C 256.159,274.661 260.159,273.494 263.5,272C 261.754,271.529 260.087,270.862 258.5,270C 261.655,269.019 261.988,267.685 259.5,266C 260.833,265 260.833,264 259.5,263C 260.715,260.904 261.549,261.071 262,263.5C 262.333,262.833 262.667,262.167 263,261.5C 264.133,263.211 265.633,263.711 267.5,263C 268.249,261.266 268.749,259.433 269,257.5C 269.424,259.615 270.591,260.448 272.5,260C 274.652,257.576 275.985,254.743 276.5,251.5C 278.007,250.611 279.34,249.611 280.5,248.5 Z"/></g>
<g><path style="opacity:1" fill="#7d4762" d="M 131.5,253.5 C 136.322,257.411 141.322,261.078 146.5,264.5C 146.5,265.833 147.167,266.5 148.5,266.5C 148.047,267.458 147.381,268.292 146.5,269C 147.167,269.333 147.833,269.667 148.5,270C 146.311,274.455 143.978,278.955 141.5,283.5C 140.135,284.807 138.802,284.807 137.5,283.5C 137.649,282.448 137.483,281.448 137,280.5C 136.184,281.823 135.017,282.489 133.5,282.5C 128.179,278.511 123.179,274.178 118.5,269.5C 119.496,269.414 120.329,269.748 121,270.5C 122.366,268.63 123.533,266.63 124.5,264.5C 128.754,264.081 131.754,261.914 133.5,258C 132.418,256.67 131.751,255.17 131.5,253.5 Z"/></g>
<g><path style="opacity:1" fill="#552a45" d="M 286.5,192.5 C 286.5,193.5 286.5,194.5 286.5,195.5C 287.35,202.799 287.683,210.132 287.5,217.5C 286.849,218.091 286.182,218.757 285.5,219.5C 284.505,224.792 284.172,230.125 284.5,235.5C 283.943,240.165 282.61,244.498 280.5,248.5C 279.34,249.611 278.007,250.611 276.5,251.5C 275.985,254.743 274.652,257.576 272.5,260C 270.591,260.448 269.424,259.615 269,257.5C 268.749,259.433 268.249,261.266 267.5,263C 265.633,263.711 264.133,263.211 263,261.5C 262.667,262.167 262.333,262.833 262,263.5C 261.549,261.071 260.715,260.904 259.5,263C 260.833,264 260.833,265 259.5,266C 261.988,267.685 261.655,269.019 258.5,270C 260.087,270.862 261.754,271.529 263.5,272C 260.159,273.494 256.159,274.661 251.5,275.5C 249.603,275.272 248.27,274.272 247.5,272.5C 246.914,272.709 246.414,273.043 246,273.5C 242.946,271.877 243.446,271.21 247.5,271.5C 248.161,267.667 246.828,266.167 243.5,267C 245.595,264.269 248.261,262.269 251.5,261C 250.584,260.722 249.918,260.222 249.5,259.5C 262.578,254.254 271.411,244.92 276,231.5C 276.882,226.647 276.382,221.981 274.5,217.5C 273.167,214.167 270.833,211.833 267.5,210.5C 265.5,209.167 263.833,207.5 262.5,205.5C 262.149,201.299 259.983,198.299 256,196.5C 255.333,195.5 255.333,194.5 256,193.5C 256.333,193.833 256.667,194.167 257,194.5C 260.45,190.916 264.616,188.249 269.5,186.5C 271.937,188.576 274.603,188.909 277.5,187.5C 276.572,186.232 276.405,184.899 277,183.5C 278.167,185.333 279.333,187.167 280.5,189C 282.425,188.865 284.425,188.698 286.5,188.5C 286.5,189.833 286.5,191.167 286.5,192.5 Z"/></g>
<g><path style="opacity:1" fill="#775b6b" d="M 363.5,270.5 C 354.697,282.071 343.031,288.738 328.5,290.5C 329.568,289.566 330.901,289.232 332.5,289.5C 332.281,288.325 332.614,287.325 333.5,286.5C 334.995,287.705 336.328,287.705 337.5,286.5C 338.833,286.5 339.5,285.833 339.5,284.5C 342.147,283.927 344.813,283.26 347.5,282.5C 350.887,279.222 354.554,276.389 358.5,274C 357.833,273.667 357.167,273.333 356.5,273C 357.793,272.51 359.127,272.343 360.5,272.5C 360.343,271.127 360.51,269.793 361,268.5C 361.417,269.756 362.25,270.423 363.5,270.5 Z"/></g>
<g><path style="opacity:1" fill="#675162" d="M 426.5,263.5 C 429.169,265.999 432.002,268.332 435,270.5C 436.011,269.663 437.178,269.33 438.5,269.5C 438.5,271.5 439.5,272.5 441.5,272.5C 442.975,274.69 444.975,276.023 447.5,276.5C 449.148,277.927 451.148,278.76 453.5,279C 460.346,279.821 467.013,279.654 473.5,278.5C 477.683,277.373 482.017,276.373 486.5,275.5C 486.5,276.833 486.5,278.167 486.5,279.5C 484.801,279.38 483.135,279.046 481.5,278.5C 462.609,283.628 445.276,280.628 429.5,269.5C 428.451,267.472 427.451,265.472 426.5,263.5 Z"/></g>
<g><path style="opacity:1" fill="#998f99" d="M 447.5,276.5 C 450.127,277.092 452.794,277.425 455.5,277.5C 461.455,278.363 467.455,278.697 473.5,278.5C 467.013,279.654 460.346,279.821 453.5,279C 451.148,278.76 449.148,277.927 447.5,276.5 Z"/></g>
<g><path style="opacity:1" fill="#8c6c7c" d="M 137.5,283.5 C 137.572,285.311 138.405,286.644 140,287.5C 141.643,286.685 143.143,285.685 144.5,284.5C 143.901,286.934 142.401,288.601 140,289.5C 137.384,287.617 135.218,285.284 133.5,282.5C 135.017,282.489 136.184,281.823 137,280.5C 137.483,281.448 137.649,282.448 137.5,283.5 Z"/></g>
<g><path style="opacity:1" fill="#7c6172" d="M 294.5,277.5 C 293.127,277.343 291.793,277.51 290.5,278C 289.651,280.049 289.651,282.382 290.5,285C 294.458,286.009 298.791,286.676 303.5,287C 305.76,287.549 307.426,288.716 308.5,290.5C 301.911,290.103 295.578,288.603 289.5,286C 288.205,283.199 288.205,280.366 289.5,277.5C 291.299,276.212 292.965,276.212 294.5,277.5 Z"/></g>
<g><path style="opacity:1" fill="#7d6270" d="M 486.5,280.5 C 486.785,282.288 486.452,283.955 485.5,285.5C 474.418,290.096 463.085,291.762 451.5,290.5C 456.892,290.262 461.725,289.262 466,287.5C 467.107,287.585 468.107,287.919 469,288.5C 470.079,286.606 471.413,286.273 473,287.5C 477.077,285.931 481.244,284.598 485.5,283.5C 485.263,282.209 485.596,281.209 486.5,280.5 Z"/></g>
</svg>
